<?xml version="1.0" encoding="UTF-8"?>
<svg version="1.1" xmlns="http://www.w3.org/2000/svg" width="512" height="512">
<path d="M0 0 C1.12745084 0.96227584 2.25432453 1.92522794 3.38095188 2.88846779 C4.32233567 3.69272554 4.32233567 3.69272554 5.28273731 4.51323092 C7.04099847 6.03549559 8.72431555 7.60322945 10.36499023 9.25146484 C10.92504257 9.81159271 11.48509491 10.37172058 12.06211853 10.94882202 C12.63845535 11.53032013 13.21479218 12.11181824 13.80859375 12.7109375 C14.42017838 13.32393707 15.031763 13.93693665 15.66188049 14.56851196 C17.58947559 16.50164564 19.51353928 18.43824987 21.4375 20.375 C22.75432404 21.69684699 24.07137926 23.01846372 25.38867188 24.33984375 C28.59512373 27.55724299 31.79841629 30.77775681 35 34 C33.47297307 37.6037274 31.34090025 39.90777914 28.58406639 42.66202927 C28.13096293 43.11744042 27.67785947 43.57285157 27.2110256 44.04206306 C25.6864437 45.57195278 24.15481334 47.09458461 22.62313843 48.61737061 C21.51966327 49.72171767 20.4166276 50.82650404 19.313995 51.93169236 C16.27877989 54.97138795 13.23734953 58.00479803 10.1948905 61.03724074 C6.91657296 64.30693618 3.64402196 67.58239407 0.37077332 70.85716248 C-5.30247565 76.53146108 -10.97938038 82.20208097 -16.65877151 87.87023163 C-24.87025186 96.06547061 -33.07621608 104.26621458 -41.28083651 112.46832064 C-54.59184489 125.77494977 -67.90731518 139.07710474 -81.22558594 152.37646484 C-94.16444956 165.2969756 -107.10121479 178.21958142 -120.03515625 191.14501953 C-120.83215862 191.94149646 -121.62916099 192.73797338 -122.45031495 193.55858597 C-126.44855509 197.55421606 -130.44675392 201.54988747 -134.44493222 205.54557943 C-167.62355434 238.70346191 -200.80941585 271.85409164 -234 305 C-234.66 304.67 -235.32 304.34 -236 304 C-235.94670532 302.62279785 -235.94670532 302.62279785 -235.89233398 301.21777344 C-235.76293398 297.8036872 -235.63865567 294.38949367 -235.51782227 290.97509766 C-235.46452989 289.49878539 -235.40921097 288.02254481 -235.35180664 286.54638672 C-235.26953788 284.42170666 -235.19461665 282.29687349 -235.12109375 280.171875 C-235.0739624 278.8940918 -235.02683105 277.61630859 -234.97827148 276.29980469 C-234.99609273 273.59337842 -235.16693689 271.54687307 -236 269 C-239.47665095 267.93111476 -242.67137478 267.88524233 -246.296875 267.90234375 C-248.10478516 267.90717773 -248.10478516 267.90717773 -249.94921875 267.91210938 C-251.83060547 267.92467773 -251.83060547 267.92467773 -253.75 267.9375 C-255.01972656 267.94201172 -256.28945313 267.94652344 -257.59765625 267.95117188 C-260.73181836 267.96295444 -263.86588541 267.97940584 -267 268 C-261.81305874 261.71935035 -256.13448559 255.9969115 -250.36990356 250.24964905 C-249.28793903 249.16724795 -248.20619448 248.08462691 -247.12464988 247.0018062 C-244.16463557 244.03956374 -241.20152557 241.08043517 -238.23788595 238.12182033 C-235.0377829 234.92604577 -231.84058064 231.72737139 -228.64302063 228.52905273 C-223.10680862 222.99231701 -217.56877226 217.45741153 -212.0294838 211.92375374 C-204.02065734 203.92306292 -196.01460177 195.91960405 -188.00921439 187.91547232 C-175.02014319 174.92858839 -162.02884155 161.94393805 -149.03613281 148.96069336 C-136.41679554 136.3505386 -123.79851159 123.73933138 -111.18164062 111.12670898 C-110.01459637 109.96005881 -110.01459637 109.96005881 -108.82397546 108.76983995 C-104.92073946 104.86790901 -101.01752413 100.96595739 -97.11431909 97.06399548 C-64.74608432 64.70612322 -32.37422777 32.35187616 0 0 Z " fill="#2563EB" transform="translate(397,125)"/>
<path d="M0 0 C2.97151477 1.42619578 5.06359013 2.81806307 7.39160156 5.16455078 C8.0319635 5.80506378 8.67232544 6.44557678 9.33209229 7.10549927 C10.01140808 7.79513763 10.69072388 8.484776 11.390625 9.1953125 C12.09523865 9.90275604 12.79985229 10.61019958 13.52581787 11.33908081 C15.7719539 13.59639862 18.01103009 15.86057633 20.25 18.125 C21.77297717 19.65800953 23.29640939 21.19056715 24.8203125 22.72265625 C28.55216927 26.47654685 32.27784843 30.23648903 36 34 C30.81368668 40.27875869 25.13797744 46.00239719 19.37663269 51.75035095 C18.29538288 52.83275423 17.21435096 53.91537519 16.13351709 54.9981938 C13.17543566 57.96043708 10.21425893 60.91956886 7.252545 63.87817967 C4.05448531 67.07397283 0.85930934 70.27264698 -2.33624268 73.47094727 C-8.59013518 79.7292821 -14.84672286 85.98491577 -21.10428713 92.23957907 C-26.18701797 97.32005107 -31.26877135 102.40149884 -36.34982872 107.48364449 C-37.07309634 108.20706534 -37.79636396 108.93048619 -38.54154878 109.67582889 C-40.01079309 111.14539292 -41.48003514 112.61495919 -42.94927498 114.08452768 C-56.71817999 127.85628267 -70.49014597 141.62497336 -84.26316323 155.39261556 C-96.0921394 167.21711844 -107.91848325 179.04424873 -119.74291992 190.87329102 C-133.47078348 204.60649906 -147.2002586 218.33809262 -160.93233222 232.06709105 C-162.39464028 233.52908055 -163.85694625 234.99107215 -165.31925011 236.45306587 C-166.03877225 237.17243374 -166.75829439 237.8918016 -167.49962023 238.6329685 C-172.58117946 243.71366261 -177.66157391 248.79551965 -182.74152565 253.87782097 C-188.92370432 260.06279619 -195.10764507 266.24600298 -201.29389331 272.42690789 C-204.45271174 275.5830882 -207.61070682 278.74008125 -210.76656151 281.89922523 C-213.65027796 284.78590205 -216.53625722 287.67029552 -219.42412897 290.55281515 C-220.47328786 291.6008488 -221.5215877 292.64974319 -222.56898019 293.69954216 C-223.98289149 295.11645485 -225.40013034 296.53004478 -226.81757832 297.94341946 C-228.00141416 299.12701177 -228.00141416 299.12701177 -229.20916587 300.33451504 C-231 302 -231 302 -232 302 C-231.99476318 301.20303711 -231.98952637 300.40607422 -231.98413086 299.58496094 C-231.963341 295.97331531 -231.95033339 292.36168229 -231.9375 288.75 C-231.92493164 286.86861328 -231.92493164 286.86861328 -231.91210938 284.94921875 C-231.90888672 283.74394531 -231.90566406 282.53867187 -231.90234375 281.296875 C-231.89710693 280.18666992 -231.89187012 279.07646484 -231.88647461 277.93261719 C-231.98341507 275.42842621 -232.26769724 273.3818844 -233 271 C-236.79537631 269.7812625 -240.42791621 269.88661872 -244.390625 269.90234375 C-245.44754547 269.90446617 -245.44754547 269.90446617 -246.52581787 269.90663147 C-248.76725584 269.91221067 -251.00859243 269.92475927 -253.25 269.9375 C-254.77343605 269.94251769 -256.29687368 269.94708013 -257.8203125 269.95117188 C-261.54690772 269.96217326 -265.27344396 269.97942354 -269 270 C-263.79148767 263.69099488 -258.08363316 257.94611838 -252.29397583 252.17372131 C-251.20376169 251.08307061 -250.11376753 249.99219999 -249.02397335 248.90112966 C-246.041156 245.916084 -243.05524261 242.93415243 -240.06879997 239.95273435 C-236.84415693 236.73241956 -233.62241444 233.50920521 -230.40031433 230.28634644 C-224.82154049 224.70704886 -219.24094218 219.1295816 -213.65909195 213.55336189 C-205.58872742 205.49113279 -197.52113357 197.42613583 -189.454208 189.36046594 C-176.36530819 176.27375343 -163.2741779 163.18927452 -150.18164062 150.10620117 C-137.46529819 137.39904116 -124.750009 124.69082875 -112.03613281 111.98120117 C-111.25212932 111.1974604 -110.46812582 110.41371963 -109.66036464 109.60622913 C-105.7271605 105.67433005 -101.79397703 101.74241029 -97.86080384 97.81048024 C-65.24374078 65.20377978 -32.62305593 32.60070451 0 0 Z " fill="#3B82F6" transform="translate(351,80)"/>
<path d="M0 0 C7.46235764 6.01534535 14.27871405 12.9747157 21.10595703 19.70092773 C22.20297101 20.77627512 23.30620891 21.84530933 24.41552734 22.90795898 C33.79282464 31.89741104 41.96530081 41.44989079 42.29248047 55.10595703 C42.4208338 70.45513759 38.14574249 79.83833018 27.43740845 90.74880981 C24.5177268 93.68401143 21.57338553 96.59367757 18.625 99.5 C17.39927391 100.71567649 16.17400945 101.93181861 14.94921875 103.1484375 C11.97144318 106.10435586 8.98748324 109.05389464 6 112 C2.99976052 110.65323083 0.91279995 109.16088099 -1.40423584 106.83627319 C-2.05762436 106.185634 -2.71101288 105.53499481 -3.38420105 104.86463928 C-4.08982681 104.15182297 -4.79545258 103.43900665 -5.52246094 102.70458984 C-6.27406998 101.95327286 -7.02567902 101.20195587 -7.80006409 100.4278717 C-10.28293771 97.94360487 -12.7586523 95.45232905 -15.234375 92.9609375 C-16.95458084 91.23700151 -18.6752288 89.51350659 -20.39630127 87.79043579 C-24.92494332 83.25415749 -29.44754715 78.71190506 -33.96893311 74.168396 C-38.58374014 69.53313047 -43.20421396 64.90352137 -47.82421875 60.2734375 C-56.88837732 51.18782914 -65.9463628 42.09609212 -75 33 C-73.1233807 28.94159077 -70.42935039 26.07180083 -67.3203125 22.9140625 C-66.46830765 22.04495743 -66.46830765 22.04495743 -65.59909058 21.15829468 C-64.3931203 19.93345505 -63.18423317 18.71148147 -61.97265625 17.4921875 C-60.15172555 15.65200806 -58.35333342 13.79161728 -56.5546875 11.9296875 C-41.37624207 -3.52422691 -20.31881814 -12.17212219 0 0 Z " fill="#1D4ED8" transform="translate(438,37)"/>
<path d="M0 0 C-0.02094727 1.16047852 -0.04189453 2.32095703 -0.06347656 3.51660156 C-0.13591807 7.82523238 -0.18181471 12.13380945 -0.21972656 16.44287109 C-0.23983261 18.30722101 -0.2671218 20.17150794 -0.30175781 22.03564453 C-0.35032121 24.71662948 -0.37297838 27.39678023 -0.390625 30.078125 C-0.41127014 30.91055725 -0.43191528 31.7429895 -0.45318604 32.60064697 C-0.45457248 36.18238144 -0.35051186 38.39465529 1.46679688 41.53320312 C5.25458979 43.72644328 8.62073162 43.4972976 12.921875 43.390625 C13.78186096 43.38496521 14.64184692 43.37930542 15.52789307 43.37347412 C18.26916649 43.35111951 21.00912304 43.30092602 23.75 43.25 C25.61065818 43.22993376 27.47133689 43.21168321 29.33203125 43.1953125 C33.88852666 43.15125784 38.44404022 43.08223754 43 43 C43.02995926 46.33331313 43.04710827 49.66659032 43.0625 53 C43.07087891 53.91523438 43.07925781 54.83046875 43.08789062 55.7734375 C43.11679121 64.21240935 42.59190763 72.58650347 42 81 C30.61727568 84.91812428 19.22455807 88.80639472 7.82617188 92.67871094 C2.98725391 94.32290509 -1.84959421 95.9730863 -6.68554688 97.62597656 C-12.76498913 99.70338057 -18.848354 101.76893115 -24.93549728 103.8236618 C-28.29678326 104.9586093 -31.65630814 106.09824428 -35.01208496 107.24938965 C-38.81553563 108.55382006 -42.62608535 109.83621278 -46.4375 111.1171875 C-47.57350647 111.51028107 -48.70951294 111.90337463 -49.87994385 112.30838013 C-56.18290647 114.4044419 -61.35108678 115.57055316 -68 115 C-70.5625 113.5625 -70.5625 113.5625 -72 111 C-72.89890531 104.19514615 -71.18460781 98.29580574 -68.98657227 91.92211914 C-68.50617996 90.47656143 -68.50617996 90.47656143 -68.01608276 89.00180054 C-66.96235718 85.84178822 -65.88963628 82.68859197 -64.81640625 79.53515625 C-64.07779626 77.33358746 -63.34034073 75.13163104 -62.60398865 72.92930603 C-60.66827 67.15075372 -58.71613961 61.37787478 -56.76074219 55.60595703 C-54.76928512 49.71679487 -52.79494402 43.82190077 -50.81835938 37.92773438 C-47.93458719 29.33980363 -45.04706664 20.7531508 -42.14282227 12.17211914 C-41.83784317 11.26772598 -41.53286407 10.36333282 -41.21864319 9.43153381 C-40.80008057 8.1974176 -40.80008057 8.1974176 -40.37306213 6.93836975 C-40.13063058 6.22184266 -39.88819902 5.50531557 -39.63842106 4.76707554 C-39 3 -39 3 -38 1 C-25.31478059 0.14206246 -12.71162964 -0.09837555 0 0 Z " fill="#60A5FA" transform="translate(104,365)"/>
</svg>
